<svg id="圖層_1" data-name="圖層 1" xmlns="http://www.w3.org/2000/svg" viewBox="0 0 44.36 45.57"><path d="M41.38,39.23c-.15,1-.22,2-.46,3-1,4-4.31,6.1-8.52,5.37a14.34,14.34,0,0,1-5.5-2.09,3.69,3.69,0,0,0-4.31,0,12.32,12.32,0,0,1-7.77,2,6.6,6.6,0,0,1-6.28-5.75,12.79,12.79,0,0,1,0-5,6,6,0,0,1,3.26-4.25c1.24-.68,2.51-1.28,3.77-1.89a3.61,3.61,0,0,0,2-2.33,19.46,19.46,0,0,1,3.36-6.81c2.39-2.88,5.58-2.91,8,0a15.76,15.76,0,0,1,3.09,6.22,5.14,5.14,0,0,0,3.38,3.71,14.26,14.26,0,0,1,3.54,2C40.75,34.87,41.32,36.92,41.38,39.23Z" transform="translate(-2.74 -2.17)"/><path d="M24,12.48a14,14,0,0,1-.18,3.1,6.17,6.17,0,0,1-6.49,4.47,6.26,6.26,0,0,1-5.78-5.36A11.66,11.66,0,0,1,15.24,4c2.85-2.84,5.7-2.28,7.42,1.38A14.57,14.57,0,0,1,24,12.48Z" transform="translate(-2.74 -2.17)"/><path d="M38.45,12.76c.18,2.59-.57,5-3.14,6.46A6.18,6.18,0,0,1,26,14.57,16.56,16.56,0,0,1,27.68,5C29.43,1.77,32,1.35,34.66,4,37.05,6.3,38.64,9,38.45,12.76Z" transform="translate(-2.74 -2.17)"/><path d="M47.1,24.15c-.37,3.61-1.72,6.83-4.89,7.66a5.59,5.59,0,0,1-6.88-6.61,15.45,15.45,0,0,1,3.89-7.59c2.27-2.24,4.56-1.95,6.23.76A13.16,13.16,0,0,1,47.1,24.15Z" transform="translate(-2.74 -2.17)"/><path d="M8.74,32.29a5.41,5.41,0,0,1-4.62-3,10.67,10.67,0,0,1,.73-11.61c1.43-2.14,3.55-2.42,5.49-.73A14.48,14.48,0,0,1,15,26.51C15.37,29.51,12.4,32.27,8.74,32.29Z" transform="translate(-2.74 -2.17)"/></svg>